<svg width="36" height="36" viewBox="0 0 36 36" fill="none" xmlns="http://www.w3.org/2000/svg">
<g id="Logo">
<path id="Vector" d="M0 31.7142C5.68067 31.7142 10.2857 26.9172 10.2857 21C10.2857 15.0826 5.68067 10.2856 0 10.2856V17.7856C1.70419 17.7856 3.0857 19.2247 3.0857 21C3.0857 22.7751 1.70419 24.2142 0 24.2142V31.7142Z" fill="#D4FF5B"/>
<path id="Vector_2" d="M35.9999 14.6059C34.1167 14.0268 32.1113 13.7144 30.0305 13.7144C19.1257 13.7144 10.2856 22.2952 10.2856 32.88C10.2856 33.9425 10.3747 34.9847 10.5459 36.0001H22.8141C22.3762 35.047 22.1327 33.9912 22.1327 32.88C22.1327 28.6461 25.6686 25.2138 30.0305 25.2138C32.4146 25.2138 34.5518 26.2391 35.9999 27.8602V14.6059Z" fill="#F6FFDE"/>
<path id="Vector_3" d="M1.71436 0C2.59618 8.19631 9.3593 14.5714 17.5716 14.5714C25.7837 14.5714 32.5469 8.19631 33.4286 0H22.0188C21.3144 1.81434 19.5886 3.09641 17.5716 3.09641C15.5543 3.09641 13.8287 1.81434 13.1242 0H1.71436Z" fill="#D4FF5B"/>
</g>
</svg>
