<svg width="45" height="34" viewBox="0 0 45 34" fill="none" xmlns="http://www.w3.org/2000/svg">
<g id="Logo">
<path id="Vector" d="M15.1229 0H24.1217L20.5096 10.0943C14.152 11.2115 9.28944 17.3625 9.28944 24.783C9.28944 28.1305 10.279 31.2197 11.9489 33.7049H0L10.9236 3.17808C11.6104 1.25863 13.2735 0 15.1229 0Z" fill="#8C8AFF"/>
<path id="Vector_2" d="M29.8167 0H20.8179L24.4148 10.0517C30.8989 11.0452 35.894 17.262 35.894 24.783C35.894 28.1305 34.9044 31.2197 33.2345 33.7049H44.9396L34.016 3.17809C33.3292 1.25863 31.6661 0 29.8167 0Z" fill="#8C8AFF"/>
<path id="Vector_3" d="M13.5183 32.7334C11.9805 30.5434 11.0635 27.7829 11.0635 24.7829C11.0635 17.6655 16.2251 11.8958 22.5922 11.8958C28.9594 11.8958 34.121 17.6655 34.121 24.7829C34.121 27.7829 33.204 30.5434 31.6662 32.7334C29.1417 30.854 25.9989 29.7395 22.5922 29.7395C19.1856 29.7395 16.0428 30.854 13.5183 32.7334Z" fill="#D9D8FF"/>
</g>
</svg>
