<svg width="39" height="38" viewBox="0 0 39 38" fill="none" xmlns="http://www.w3.org/2000/svg">
<g id="Logo">
<path id="Vector" d="M0 19C0 10.0433 0 5.56497 2.81555 2.78248C5.6311 0 10.1627 0 19.2258 0C28.2889 0 32.8205 0 35.6361 2.78248C38.4516 5.56497 38.4516 10.0433 38.4516 19C38.4516 27.9567 38.4516 32.435 35.6361 35.2175C32.8205 38 28.2889 38 19.2258 38C10.1627 38 5.6311 38 2.81555 35.2175C0 32.435 0 27.9567 0 19Z" fill="#D4FF5B"/>
<path id="Vector_2" d="M23.071 24.7C23.602 24.7 24.042 25.1294 23.9366 25.6437C23.7502 26.5519 23.2974 27.3937 22.6245 28.0587C21.7232 28.9495 20.5006 29.45 19.2259 29.45C17.9511 29.45 16.7286 28.9495 15.8272 28.0587C15.1543 27.3937 14.7016 26.5519 14.5153 25.6437C14.4097 25.1294 14.8498 24.7 15.3807 24.7H23.071Z" fill="#070828"/>
<path id="Vector_3" d="M25.0918 16.8878C24.5789 17.0235 24.2649 17.5537 24.5249 18.0111C24.7986 18.4926 25.1771 18.9128 25.6377 19.2389C26.3608 19.751 27.2411 19.9995 28.1289 19.9419C29.0165 19.8845 29.8566 19.5246 30.5059 18.9236C31.1552 18.3227 31.5735 17.5177 31.6896 16.6461C31.8057 15.7745 31.6125 14.89 31.1427 14.1434C30.6729 13.3969 29.9557 12.8344 29.1133 12.5518C28.271 12.2692 27.3555 12.284 26.5229 12.5937C25.9927 12.7909 25.5171 13.0999 25.1266 13.4949C24.7556 13.8703 24.9201 14.4628 25.3799 14.7251L25.8675 15.0034C26.6092 15.4266 26.463 16.5247 25.6357 16.7438L25.0918 16.8878Z" fill="#070828"/>
<path id="Vector_4" d="M13.3597 16.8878C13.8726 17.0235 14.1866 17.5537 13.9266 18.0111C13.6529 18.4926 13.2744 18.9128 12.8139 19.2389C12.0908 19.751 11.2104 19.9995 10.3227 19.9419C9.435 19.8845 8.59493 19.5246 7.94565 18.9236C7.29637 18.3227 6.87802 17.5177 6.76191 16.6461C6.64579 15.7745 6.83908 14.89 7.30885 14.1434C7.77862 13.3969 8.4958 12.8344 9.33818 12.5518C10.1806 12.2692 11.0961 12.284 11.9287 12.5937C12.4588 12.7909 12.9346 13.0999 13.325 13.4949C13.696 13.8703 13.5314 14.4628 13.0716 14.7251L12.584 15.0034C11.8423 15.4266 11.9886 16.5247 12.8158 16.7438L13.3597 16.8878Z" fill="#070828"/>
</g>
</svg>
